<svg version="1.1"
    xmlns="http://www.w3.org/2000/svg"
    xmlns:xlink="http://www.w3.org/1999/xlink" width="512" height="512" viewBox="0 0 512 512">
    <title>earth link icon</title>
    <desc>earth link icon from the IconExperience.com G-Collection. Copyright by INCORS GmbH (www.incors.com).</desc>
    <defs>
        <radialGradient cx="147.87014" cy="179.00819" r="402.92535" fx="147.87014" fy="179.00819" gradientUnits="userSpaceOnUse" id="color-1">
            <stop offset="0" stop-color="#98e957"/>
            <stop offset="0.41177" stop-color="#77da26"/>
            <stop offset="1" stop-color="#3b6d13"/>
        </radialGradient>
        <radialGradient cx="140.88445" cy="174.31103" r="358.93492" fx="140.88445" fy="174.31103" gradientUnits="userSpaceOnUse" id="color-2">
            <stop offset="0" stop-color="#4eb6f2"/>
            <stop offset="0.2" stop-color="#43abe7"/>
            <stop offset="1" stop-color="#0e76b2"/>
        </radialGradient>
        <linearGradient x1="304" y1="352" x2="372.8355" y2="496.1755" gradientUnits="userSpaceOnUse" id="color-3">
            <stop offset="0" stop-color="#ffc001"/>
            <stop offset="1" stop-color="#d99b00"/>
        </linearGradient>
        <linearGradient x1="80" y1="352" x2="148.835" y2="496.1755" gradientUnits="userSpaceOnUse" id="color-4">
            <stop offset="0" stop-color="#ffc001"/>
            <stop offset="1" stop-color="#d99b00"/>
        </linearGradient>
        <linearGradient x1="192" y1="408" x2="192" y2="456" gradientUnits="userSpaceOnUse" id="color-5">
            <stop offset="0" stop-color="#f7b801"/>
            <stop offset="0.4902" stop-color="#e0a201"/>
            <stop offset="1" stop-color="#c88b00"/>
        </linearGradient>
    </defs>
    <g fill="none" fill-rule="evenodd" stroke="none" stroke-width="1" stroke-linecap="butt" stroke-linejoin="miter" stroke-miterlimit="10" stroke-dasharray="" stroke-dashoffset="0" font-family="none" font-weight="none" font-size="none" text-anchor="none" style="mix-blend-mode: normal">
        <path d="M224,0c123.5,0 224,100.5 224,224c0,123.5 -100.5,224 -224,224c-123.5,0 -224,-100.5 -224,-224c0,-123.5 100.5,-224 224,-224z" id="curve4" fill="url(#color-1)"/>
        <path d="M277,136.5c6,-2 14.5,-2.5 17.5,-1.5c15.5,5.5 15,21.5 31,24c2,0.5 10,-4.5 12,-4.5c10,2 19,11.5 28,7c5,-2.5 7.5,-12.5 3,-16c-4.5,-3.5 -11,-1 -16,-4.5c-7,-5 -13,2.5 -19,-4.5c-3,-3 -7.5,-13 -11,-18c-4,-5.5 -15.5,-3 -13.5,-0.5c6,7.5 14.5,9 15.5,13.5c1.5,4.5 -11,11 -7.5,2c1.5,-4.5 -7,-7 -17.5,-12.5c-5,-3 -10.5,-10 -18.5,-6c-4,2 -11.5,11 -14.5,15.5c-5,8 -16.5,6 -24.5,2c-8,-4 -8,-22.5 2,-30.5c9.5,-8 17.5,-3 27,-6c3.5,-1 5.5,-5 11.5,-9c6.5,-4.5 -4.5,-11.5 -0.5,-19c3,-6 12.5,-7 18,-9.5c5,-2.5 10.5,-6.5 16,-3.5c7,4.5 15,5 22.5,9.5c10.5,6.5 18.5,10 28.5,8.5c-34.5,-32.5 -80,-53.5 -130.5,-56.5c7,5 19.5,19.5 16,27c-3.5,7.5 -8,17 -22.5,22.5c-11,4 -25,4 -36,9c-11.5,4.5 -22.5,4.5 -29,6c-10,2 0.5,-33.5 -2.5,-37.5c-4.5,-6 -31,-1 -33.5,5.5c-5.5,14 7,26 6.5,29c-1,5.5 -1,27 -6,32.5c-8,8.5 -27.5,16 -30.5,16.5c-12.5,1.5 -15.5,15 -25.5,22.5c-4,3.5 -24.5,25 -27.5,31.5c-9,18 -0.5,29.5 3.5,33c7,6.5 10,7 17.5,9.5c3.5,1 32.5,16 40.5,24c8,8.5 12,17 20,22c10,6 28,12.5 30.5,17.5c10.5,20.5 7,50 -24,71c-8,5 -24,14 -20,29c1.5,6 1,11 3.5,15.5c31,19 67.5,29.5 106.5,29.5c115,0 208,-93 208,-208c0,-10 -0.5,-19.5 -2,-29c-3,-4.5 -6.5,-8 -9,-7c-3.5,1 -3.5,12 -7.5,18.5c-3,5 -10,5.5 -11,7c-7.5,10.5 17.5,18.5 6.5,32.5c-4.5,6 -18.5,19.5 -22.5,37c-8,37.5 -2.5,15 -14.5,45c-2,4.5 -5,21.5 -7.5,25.5c-11.5,17.5 -44,37 -52,27c-4.5,-5.5 -7.5,-14.5 -9,-23c-1.5,-8 -10,-19 -9,-25.5c1,-10.5 2,-13.5 2.5,-25.5c0,-0.5 -7.5,-29.5 -8.5,-32c-5.5,-11 -14,-16 -26.5,-12c-9.5,3.5 -17.5,-1.5 -25,-4.5c-15,-6 -22,-26 -25,-42c-0.5,0 2,-25.5 2,-26.5c0.5,-7 3.5,-13 7.5,-18.5c27,-38.5 20.5,-22 55.5,-34.5z M104,394c-11.5,-13.5 -24,-30 -28,-39.5c-4.5,-11 -5.5,-30 -10.5,-36c-11,-12.5 -20.5,-22.5 -22.5,-35c-2,-11 -8.5,-28 -9.5,-37c-2,-12.5 -7.5,-26.5 -17,-36.5c-0.5,5 -0.5,9.5 -0.5,14c0,70.5 35,132.5 88,170z" id="curve3" fill="url(#color-2)"/>
        <path d="M384,352l48,0c44,0 80,36 80,80l0,0c0,44 -36,80 -80,80l-48,0c-44,0 -80,-36 -80,-80l0,0c0,-44 36,-80 80,-80z M384,400c-17.5,0 -32,14.5 -32,32c0,17.5 14.5,32 32,32l48,0c17.5,0 32,-14.5 32,-32c0,-17.5 -14.5,-32 -32,-32z" id="curve2" fill="url(#color-3)"/>
        <path d="M160,352l48,0c44,0 80,36 80,80l0,0c0,44 -36,80 -80,80l-48,0c-44,0 -80,-36 -80,-80l0,0c0,-44 36,-80 80,-80z M160,400c-17.5,0 -32,14.5 -32,32c0,17.5 14.5,32 32,32l48,0c17.5,0 32,-14.5 32,-32c0,-17.5 -14.5,-32 -32,-32z" id="curve1" fill="url(#color-4)"/>
        <path d="M216,408l160,0c13,0 24,11 24,24l0,0c0,13 -11,24 -24,24l-160,0c-13,0 -24,-11 -24,-24l0,0c0,-13 11,-24 24,-24z" id="curve0" fill="url(#color-5)"/>
    </g>
</svg>