<svg version="1.1"
    xmlns="http://www.w3.org/2000/svg"
    xmlns:xlink="http://www.w3.org/1999/xlink" width="512" height="512" viewBox="0 0 512 512">
    <title>wax seal icon</title>
    <desc>wax seal icon from the IconExperience.com G-Collection. Copyright by INCORS GmbH (www.incors.com).</desc>
    <defs>
        <linearGradient x1="242" y1="192" x2="434.0015" y2="240" gradientUnits="userSpaceOnUse" id="color-1">
            <stop offset="0" stop-color="#4eb6f2"/>
            <stop offset="1" stop-color="#129eee"/>
        </linearGradient>
        <linearGradient x1="63" y1="202" x2="143" y2="266" gradientUnits="userSpaceOnUse" id="color-2">
            <stop offset="0" stop-color="#4eb6f2"/>
            <stop offset="1" stop-color="#129eee"/>
        </linearGradient>
        <linearGradient x1="242" y1="367.82843" x2="389.132" y2="361.99243" gradientUnits="userSpaceOnUse" id="color-3">
            <stop offset="0" stop-color="#42aae6"/>
            <stop offset="1" stop-color="#228ac6"/>
        </linearGradient>
        <linearGradient x1="128" y1="202" x2="234.268" y2="246.2785" gradientUnits="userSpaceOnUse" id="color-4">
            <stop offset="0" stop-color="#4eb6f2"/>
            <stop offset="1" stop-color="#238bc7"/>
        </linearGradient>
        <linearGradient x1="80.0329" y1="0" x2="316.8854" y2="305.19195" gradientUnits="userSpaceOnUse" id="color-5">
            <stop offset="0" stop-color="#ef5c51"/>
            <stop offset="1" stop-color="#af1c11"/>
        </linearGradient>
        <linearGradient x1="368" y1="288" x2="194.909" y2="64.0005" gradientUnits="userSpaceOnUse" id="color-6">
            <stop offset="0" stop-color="#e35045"/>
            <stop offset="1" stop-color="#ba271c"/>
        </linearGradient>
    </defs>
    <g fill="none" fill-rule="evenodd" stroke="none" stroke-width="1" stroke-linecap="butt" stroke-linejoin="miter" stroke-miterlimit="10" stroke-dasharray="" stroke-dashoffset="0" font-family="none" font-weight="none" font-size="none" text-anchor="none" style="mix-blend-mode: normal">
        <path d="M242,218.5l75.5,-26.5l133.5,258l-91,-11.5l-64,65.5l-39,-199.5z" id="curve5" fill="url(#color-1)"/>
        <path d="M242,218.5l15,86l-46,199l-59.5,-65.5l-88.5,8.5l137,-244.5z" id="curve4" fill="url(#color-2)"/>
        <path d="M242,218.5l75.5,-26.5l71.5,138.5c-13,9 -27.5,16 -39,21c-18,7.5 -37,13.5 -56,15.5c-8.5,1 -17,1 -25,0.5l-12,-63z" id="curve3" fill="url(#color-3)"/>
        <path d="M242,218.5l15,86l-13.5,58c-6,-1.5 -11.5,-3.5 -17.5,-5.5c-8.5,-3.5 -17,-7.5 -25.5,-11.5c-7,-3 -14,-6.5 -21,-8.5c-9.5,-3 -22,-3.5 -32.5,-4c-6.5,-0.5 -13,-1 -19,-2l72,-129z" id="curve2" fill="url(#color-4)"/>
        <path d="M418.5,276c-11,32 -75.5,69.5 -126.5,75.5c-45.5,5 -79,-20.5 -107.5,-29.5c-31,-10.5 -74.5,6 -95.5,-36.5c-17.5,-35 17,-78.5 3,-115.5c-20,-53 -22,-96 50.5,-129.5c23.5,-11 55,-40.5 118,-40.5c61.5,0 83.5,40 126,58.5c38,16.5 55,64 40.5,108.5c-13.5,41 5.5,68 -8.5,109z" id="curve1" fill="url(#color-5)"/>
        <path d="M256,64c62,0 112,50 112,112c0,62 -50,112 -112,112c-62,0 -112,-50 -112,-112c0,-62 50,-112 112,-112z" id="curve0" fill="url(#color-6)"/>
    </g>
</svg>